<?xml version="1.0" encoding="utf-8"?>
<!-- Generator: Adobe Illustrator 19.0.0, SVG Export Plug-In . SVG Version: 6.00 Build 0)  -->
<svg version="1.1"
	 id="Layer_1" xmlns:cc="http://creativecommons.org/ns#" xmlns:inkscape="http://www.inkscape.org/namespaces/inkscape" xmlns:sodipodi="http://sodipodi.sourceforge.net/DTD/sodipodi-0.dtd" xmlns:svg="http://www.w3.org/2000/svg" xmlns:rdf="http://www.w3.org/1999/02/22-rdf-syntax-ns#" xmlns:dc="http://purl.org/dc/elements/1.1/"
	 xmlns="http://www.w3.org/2000/svg" xmlns:xlink="http://www.w3.org/1999/xlink" x="0px" y="0px" viewBox="-447 336 72 72"
	 style="enable-background:new -447 336 72 72;" xml:space="preserve">
<g transform="translate(0,-952.36218)">
	<path d="M-418,1288.4c-16,0-29,13-29,29s13,29,29,29c6.9,0,13.3-2.4,18.2-6.5l19.6,19.6c1.2,1.2,3.1,1.2,4.2,0c1.2-1.2,1.2-3,0-4.2
		l-19.6-19.6c4.1-5,6.5-11.4,6.5-18.3C-389,1301.4-402,1288.4-418,1288.4L-418,1288.4z M-418,1294.4c12.7,0,23,10.3,23,23
		c0,12.7-10.3,23-23,23s-23-10.3-23-23C-441,1304.6-430.7,1294.4-418,1294.4z"/>
</g>
</svg>
