<?xml version="1.0" encoding="utf-8"?>
<!-- Generator: Adobe Illustrator 19.0.0, SVG Export Plug-In . SVG Version: 6.00 Build 0)  -->
<svg version="1.1"
	 id="Layer_1" xmlns:inkscape="http://www.inkscape.org/namespaces/inkscape" xmlns:rdf="http://www.w3.org/1999/02/22-rdf-syntax-ns#" xmlns:svg="http://www.w3.org/2000/svg" xmlns:sodipodi="http://sodipodi.sourceforge.net/DTD/sodipodi-0.dtd" xmlns:dc="http://purl.org/dc/elements/1.1/" xmlns:cc="http://creativecommons.org/ns#"
	 xmlns="http://www.w3.org/2000/svg" xmlns:xlink="http://www.w3.org/1999/xlink" x="0px" y="0px" viewBox="-424 223 90 90"
	 style="enable-background:new -424 223 90 90;" xml:space="preserve">
<style type="text/css">
	.st0{fill:#FFFFFF;}
</style>
<rect x="-424" y="223" class="st0" width="90" height="90"/>
<g transform="translate(0,-952.36218)">
	<path d="M-379.3,1175.4c-0.7,0.1-1.3,0.4-1.8,0.9l-14,14c-1.2,1.1-1.4,3-0.3,4.2c1.1,1.2,3,1.4,4.2,0.3c0.1-0.1,0.2-0.2,0.3-0.3
		l8.9-8.9v24.8c0,1.6,1.4,3.1,3,3.1c1.6,0,3-1.5,3-3.1v-24.8l8.9,8.9c1.1,1.2,3,1.4,4.2,0.3c1.2-1.1,1.4-3,0.3-4.2
		c-0.1-0.1-0.2-0.2-0.3-0.3l-14-14C-377.5,1175.6-378.4,1175.3-379.3,1175.4z M-407.3,1203.3c-0.7,0.1-1.3,0.4-1.8,0.9l-14,14
		c-1.2,1.2-1.2,3,0,4.2l14,14c1.1,1.2,3,1.4,4.2,0.3c1.2-1.1,1.4-3,0.3-4.2c-0.1-0.1-0.2-0.2-0.3-0.3l-8.9-8.9h24.8c1.6,0,3-1.4,3-3
		s-1.4-3-3-3h-24.8l8.9-8.9c1.2-1.2,1.2-3.1,0.1-4.2C-405.5,1203.5-406.4,1203.2-407.3,1203.3z M-351.3,1203.3
		c-1.6,0.2-2.8,1.7-2.7,3.3c0.1,0.7,0.4,1.3,0.9,1.8l8.9,8.9H-369c-0.1,0-0.2,0-0.3,0c-1.6,0.1-2.9,1.6-2.8,3.2
		c0.1,1.6,1.6,2.9,3.2,2.8h24.8l-8.9,8.9c-1.2,1.1-1.4,3-0.3,4.2c1.1,1.2,3,1.4,4.2,0.3c0.1-0.1,0.2-0.2,0.3-0.3l14-14
		c1.2-1.2,1.2-3,0-4.2l-14-14C-349.5,1203.6-350.4,1203.2-351.3,1203.3z M-379,1227.3c-1.6,0-3,1.5-3,3.1v24.8l-8.9-8.9
		c-0.6-0.7-1.6-1-2.5-0.9c-1.6,0.2-2.8,1.7-2.7,3.3c0.1,0.7,0.4,1.3,0.9,1.8l14,14c1.2,1.2,3.1,1.2,4.2,0c0,0,0,0,0,0l14-14
		c1.2-1.1,1.4-3,0.3-4.2c-1.1-1.2-3-1.4-4.2-0.3c-0.1,0.1-0.2,0.2-0.3,0.3l-8.9,8.9v-24.8C-376,1228.8-377.4,1227.3-379,1227.3z"/>
</g>
</svg>
